:SAMPLES-PER-SECOND 30
:FULLY-SPECIFIED
:DEGREES
382
root  41.6303 37.0136 -11.1795 -133.302 80.9827 -168.771
RightUpLeg  -67.4955 -16.1938 18.4408
RightLeg  35.6875 -3.3211 -2.82503
RightFoot  -2.15165 0.516384 -6.59569
RightToes  0.000482159 0.542163 -0.142577
Spine  68.5753 -4.8706 6.67213
Spine1  4.54195 1.34209 -8.41629
HEad  -40.8489 -4.38648 -1.29641
LeftShoulder1  6.09743 -23.5781 -15.6103
LeftArm  -65.1881 -61.6442 5.94115
LeftForeArm  -0.744806 -29.6319 -6.48286
LeftHand  -0.25398 0.0180481 5.50724
RightShoulder  4.54411 15.2887 17.5666
RightArm  -60.5106 42.4965 -4.24313
RightForeArm  -19.6508 37.0281 9.53178
RightHand  0.564437 1.28685 9.65856
LeftUpLeg  -72.0636 21.5282 -27.3443
LeftLeg  30.8689 -3.69034 -2.02918
LeftFoot  1.46939 -1.52278 13.4215
LeftToes  1.06248e-005 4.65854e-005 -8.185e-006
383
root  41.3568 37.3083 -10.8483 -137.273 79.5953 -170.246
RightUpLeg  -63.8044 -15.984 16.393
RightLeg  34.1149 -3.01672 -2.45612
RightFoot  -1.27534 0.478114 -5.52239
RightToes  0.000482159 0.542163 -0.142577
Spine  67.2013 -4.77374 6.73073
Spine1  5.41413 1.34957 -7.90773
HEad  -39.8565 -4.15807 -3.32843
LeftShoulder1  6.13532 -23.2175 -16.1017
LeftArm  -55.2304 -59.7457 -2.41193
LeftForeArm  -2.07111 -30.8982 -6.87402
LeftHand  -0.25398 0.0180481 5.50724
RightShoulder  4.37136 14.8761 17.141
RightArm  -54.4808 40.1139 1.96311
RightForeArm  -21.6509 40.4625 10.7775
RightHand  0.353049 -0.345882 8.23587
LeftUpLeg  -68.412 22.4847 -26.0919
LeftLeg  27.9197 -5.13645 -2.60524
LeftFoot  3.13967 -1.67312 12.9671
LeftToes  1.06248e-005 4.65854e-005 -8.185e-006
384
root  41.0887 37.6042 -10.4592 -141.224 78.0467 -171.374
RightUpLeg  -59.4677 -14.5573 12.9263
RightLeg  32.7912 -1.75669 -1.47189
RightFoot  -0.273978 0.385687 -4.00213
RightToes  0.000482159 0.542163 -0.142577
Spine  66.0629 -4.6873 6.72003
Spine1  5.98979 1.30349 -7.11373
HEad  -39.0361 -3.49468 -5.82859
LeftShoulder1  6.4018 -22.7025 -17.6978
LeftArm  -46.2724 -56.9086 -10.3665
LeftForeArm  -2.7329 -32.573 -7.34976
LeftHand  -0.25398 0.0180481 5.50724
RightShoulder  4.18796 14.5737 16.4765
RightArm  -47.9287 37.1786 7.94052
RightForeArm  -23.3489 43.9526 12.1796
RightHand  0.193386 -1.38701 6.03021
LeftUpLeg  -64.5497 23.5735 -24.6355
LeftLeg  25.1885 -6.8724 -3.18286
LeftFoot  5.0212 -1.79435 12.2137
LeftToes  1.06248e-005 4.65854e-005 -8.185e-006
385
root  40.8293 37.8594 -10.0256 -144.653 76.4532 -171.915
RightUpLeg  -54.9914 -11.3082 8.20831
RightLeg  32.0128 0.674214 0.209868
RightFoot  0.557912 0.229816 -2.16387
RightToes  0.000482159 0.542163 -0.142577
Spine  64.9464 -4.58786 6.67253
Spine1  6.3473 1.25709 -6.36456
HEad  -38.0708 -2.04334 -8.49769
LeftShoulder1  7.0828 -22.3648 -20.8624
LeftArm  -39.3103 -52.7863 -16.3374
LeftForeArm  -2.29291 -35.144 -8.03815
LeftHand  -0.25398 0.0180481 5.50724
RightShoulder  4.22481 14.2264 17.1998
RightArm  -41.6077 34.4762 12.316
RightForeArm  -23.5133 47.3119 13.6389
RightHand  0.109666 -1.69822 3.9246
LeftUpLeg  -60.634 24.5908 -23.0581
LeftLeg  22.4795 -8.42915 -3.47309
LeftFoot  6.88998 -1.95977 11.9007
LeftToes  1.06248e-005 4.65854e-005 -8.185e-006
386
root  40.5805 38.0562 -9.51653 -148.398 74.6531 -172.853
RightUpLeg  -50.9155 -7.27163 3.63039
RightLeg  31.6429 3.59935 2.14856
RightFoot  0.658079 0.0580488 -0.499014
RightToes  0.000482159 0.542163 -0.142577
Spine  63.6759 -4.52532 6.52562
Spine1  6.6882 1.17849 -5.69394
HEad  -36.4272 0.17503 -11.5089
LeftShoulder1  7.94251 -22.0815 -24.7331
LeftArm  -34.4604 -47.6567 -20.2096
LeftForeArm  -0.940778 -38.3876 -8.93282
LeftHand  -0.25398 0.0180481 5.50724
RightShoulder  4.37161 13.7688 18.8043
RightArm  -36.2325 31.9865 15.61
RightForeArm  -22.0785 50.5406 15.1721
RightHand  0.0604555 -2.03428 2.66312
LeftUpLeg  -56.7112 25.2949 -21.3615
LeftLeg  19.7769 -9.93262 -3.67051
LeftFoot  8.86815 -2.10934 11.4957
LeftToes  1.06248e-005 4.65854e-005 -8.185e-006
387
root  40.3535 38.2042 -8.905 -152.686 72.3982 -174.38
RightUpLeg  -47.1667 -4.93038 1.19363
RightLeg  31.0066 5.63161 3.40884
RightFoot  -0.0689285 -0.0191809 0.184807
RightToes  0.000482159 0.542163 -0.142577
Spine  62.331 -4.53021 6.31469
Spine1  6.9813 0.951578 -4.94537
HEad  -34.3435 2.88362 -14.9101
LeftShoulder1  8.65541 -21.6127 -28.2796
LeftArm  -31.0362 -41.9193 -22.9083
LeftForeArm  0.50689 -41.9253 -10.0207
LeftHand  -0.25398 0.0180481 5.50724
RightShoulder  4.54012 13.3487 20.5574
RightArm  -31.8758 29.2769 18.4074
RightForeArm  -20.1861 53.881 17.0153
RightHand  0.014807 -3.02149 1.85038
LeftUpLeg  -52.2269 24.5604 -18.0236
LeftLeg  17.1733 -10.1076 -4.23723
LeftFoot  11.029 -2.13817 10.4415
LeftToes  1.06248e-005 4.65854e-005 -8.185e-006
388
root  40.1475 38.3195 -8.2177 -156.581 69.6563 -175.433
RightUpLeg  -43.376 -5.61675 1.59125
RightLeg  29.6172 5.8876 3.38456
RightFoot  -0.976151 0.0444805 -0.573037
RightToes  0.000482159 0.542163 -0.142577
Spine  61.1977 -4.55254 6.32964
Spine1  6.72008 0.495503 -3.8973
HEad  -32.6845 5.80088 -18.0164
LeftShoulder1  9.23415 -20.8398 -31.8224
LeftArm  -28.2062 -35.9166 -24.2448
LeftForeArm  1.22527 -45.559 -11.3465
LeftHand  -0.25398 0.0180481 5.50724
RightShoulder  4.74769 13.0126 22.4845
RightArm  -28.0181 26.1346 20.5453
RightForeArm  -18.5547 57.4631 19.452
RightHand  -0.0267629 -4.29957 0.536727
LeftUpLeg  -46.6649 20.8341 -11.5868
LeftLeg  14.3527 -6.77031 -5.17222
LeftFoot  13.2976 -2.14689 9.42286
LeftToes  1.06248e-005 4.65854e-005 -8.185e-006
389
root  39.9506 38.4233 -7.49591 -159.773 66.5432 -175.79
RightUpLeg  -39.7256 -8.48396 3.56841
RightLeg  27.7041 4.96293 2.59629
RightFoot  -1.4224 0.212782 -2.55457
RightToes  0.000482159 0.542163 -0.142577
Spine  60.5503 -4.53407 6.70405
Spine1  5.45744 -0.0505494 -2.51576
HEad  -31.5528 8.52808 -20.0783
LeftShoulder1  9.86733 -19.8835 -36.0425
LeftArm  -25.3865 -29.9352 -23.8763
LeftForeArm  1.37862 -49.1385 -12.8935
LeftHand  -0.25398 0.0180481 5.50724
RightShoulder  4.94404 12.6353 24.4787
RightArm  -24.3511 22.4383 21.934
RightForeArm  -16.7198 61.1078 22.5621
RightHand  -0.0390157 -5.2639 -1.24017
LeftUpLeg  -41.4945 15.7806 -5.53822
LeftLeg  10.8558 -2.86003 -5.83503
LeftFoot  15.7439 -2.07759 8.21495
LeftToes  1.06248e-005 4.65854e-005 -8.185e-006
390
root  39.7692 38.5329 -6.75835 -162.644 63.1608 -176.179
RightUpLeg  -36.7601 -11.9755 5.3952
RightLeg  25.9608 4.13155 1.95967
RightFoot  -1.17711 0.398127 -4.55312
RightToes  0.000482159 0.542163 -0.142577
Spine  59.1264 -4.63152 7.39088
Spine1  5.26441 -0.341168 -1.71219
HEad  -31.3715 10.5621 -20.6487
LeftShoulder1  10.379 -19.2939 -39.2699
LeftArm  -23.4347 -24.7045 -23.2675
LeftForeArm  2.13565 -52.2043 -14.3898
LeftHand  -0.25398 0.0180481 5.50724
RightShoulder  5.11583 12.3583 26.1688
RightArm  -21.9726 18.8161 22.621
RightForeArm  -14.1225 64.1938 25.8802
RightHand  -0.0275634 -6.08664 -2.39453
LeftUpLeg  -36.8561 9.63696 -0.0130034
LeftLeg  6.30011 1.40302 -6.52053
LeftFoot  18.0305 -1.20758 4.21316
LeftToes  1.06248e-005 4.65854e-005 -8.185e-006
391
root  39.6182 38.6799 -6.03405 -165.021 59.6511 -176.671
RightUpLeg  -34.5118 -15.5855 6.68594
RightLeg  24.2558 4.19488 1.82484
RightFoot  -0.334971 0.52538 -5.47337
RightToes  0.000482159 0.542163 -0.142577
Spine  57.2073 -4.72979 8.04908
Spine1  5.41743 -0.380298 -1.50163
HEad  -31.2194 12.1513 -20.5586
LeftShoulder1  10.6327 -18.8938 -41.1192
LeftArm  -22.0691 -19.8039 -23.4022
LeftForeArm  3.65159 -54.7859 -15.7797
LeftHand  -0.25398 0.0180481 5.50724
RightShoulder  5.2768 12.2578 27.443
RightArm  -20.3738 15.323 23.1013
RightForeArm  -11.0124 66.5532 29.0157
RightHand  -0.0106104 -7.19145 -2.50786
LeftUpLeg  -33.042 5.09193 3.39136
LeftLeg  1.18195 3.3217 -6.80046
LeftFoot  19.0796 0.908794 -3.8154
LeftToes  1.06248e-005 4.65854e-005 -8.185e-006
